<?xml version="1.0" encoding="UTF-8" standalone="no"?>
<svg width="24" height="24" viewBox="0 0 24 24" fill="none" xmlns="http://www.w3.org/2000/svg">
    <path d="M12 4C16.4183 4 20 7.58172 20 12C20 16.4183 16.4183 20 12 20C7.58172 20 4 16.4183 4 12C4 7.58172 7.58172 4 12 4ZM12 5.33333C11.4616 5.33333 10.9381 5.39716 10.4367 5.51765L9.10335 8.6327L6.41995 8.35066C5.79535 9.30378 5.40836 10.4266 5.34316 11.635L5.33373 12.0735L7.21849 13.8544L6.4383 15.6772C7.1201 16.7063 8.0799 17.5352 9.21062 18.0568L12.0119 16.3484L14.1061 18.3272C15.4641 17.8754 16.628 16.9986 17.4401 15.8545L16.6891 12.052L18.5765 10.9009C18.4267 9.99775 18.0953 9.1559 17.6211 8.41415L14.5996 8.09657L14.1219 5.67814C13.4554 5.45451 12.7419 5.33333 12 5.33333ZM12 9.33333L14.6667 11.3705L13.6481 14.6667H10.3519L9.33333 11.3705L12 9.33333Z"
          fill="#FFC000"></path>
</svg>